<svg width="765" height="519" viewBox="0 0 765 519" fill="none" xmlns="http://www.w3.org/2000/svg">
<g clip-path="url(#clip0_65_408)">
<path d="M791 0H0V519H791V0Z" fill="white" fill-opacity="0.03"/>
<path d="M653.751 84.8679C586.047 40.5645 507.588 67.2624 426.395 81.7539C356.608 94.2099 293.875 64.1079 232.091 79.6779C161.843 97.3812 128.487 121.592 95.8932 189.166C60.2897 262.981 44.8952 294.715 44.8952 351.745C44.8952 443.002 124.167 478.374 124.167 478.374H652.942C674.933 476.738 726.237 447.649 725.931 376.026C725.607 300.149 693.328 275.622 691.82 224.167C690.312 172.711 696.58 112.894 653.751 84.8679Z" fill="#CAF0FF"/>
<path d="M707.688 486.033H84.1932C82.1708 486.033 80.5311 484.432 80.5311 482.456V481.952C80.5311 479.976 82.1708 478.374 84.1932 478.374H707.688C709.71 478.374 711.35 479.976 711.35 481.952V482.456C711.35 484.432 709.71 486.033 707.688 486.033Z" fill="#142666"/>
<path d="M405.166 478.374H111.474C108.687 478.374 106.428 476.167 106.428 473.445V101.098C106.428 98.3754 108.687 96.1683 111.474 96.1683H405.166C407.953 96.1683 410.211 98.3754 410.211 101.098V473.445C410.211 476.167 407.953 478.374 405.166 478.374Z" fill="#4188E4"/>
<path d="M392.059 124.458H124.649V202.737H392.059V124.458Z" fill="#142666"/>
<path d="M392.059 209.867H124.649V288.146H392.059V209.867Z" fill="#142666"/>
<path d="M392.059 295.276H124.649V373.554H392.059V295.276Z" fill="#142666"/>
<path d="M245.515 365.51V373.555H290.454V365.51H245.515Z" fill="#AFDBFE"/>
<path d="M251.726 358.356V365.51H291.92V358.356H251.726Z" fill="white" fill-opacity="0.03"/>
<path d="M245.528 351.203V358.356H285.722V351.203H245.528Z" fill="#70C0FD"/>
<path d="M329.949 324.531H320.804V373.555H329.949V324.531Z" fill="#AFDBFE"/>
<path d="M339.335 332.832H332.115V373.555H339.335V332.832Z" fill="#70C0FD"/>
<path d="M308.811 324.531H299.665V373.555H308.811V324.531Z" fill="#AFDBFE"/>
<path d="M318.197 332.832H310.977V373.555H318.197V332.832Z" fill="#70C0FD"/>
<path d="M166.211 334.398H150.247V373.555H166.211V334.398Z" fill="#AFDBFE"/>
<path d="M147.52 338.236H143.027V373.555H147.52V338.236Z" fill="white" fill-opacity="0.03"/>
<path d="M141.583 332.597H134.443V373.555H141.583V332.597Z" fill="#70C0FD"/>
<path d="M237.769 332.597H230.63V373.555H237.769V332.597Z" fill="#70C0FD"/>
<path d="M193.727 338.236H179.207V373.555H193.727V338.236Z" fill="white" fill-opacity="0.03"/>
<path d="M204.396 324.531H195.251V373.555H204.396V324.531Z" fill="#AFDBFE"/>
<path d="M213.782 332.832H206.562V373.555H213.782V332.832Z" fill="#70C0FD"/>
<path d="M176.479 329.934H168.056V373.555H176.479V329.934Z" fill="#70C0FD"/>
<path d="M228.465 336.826H215.228V373.555H228.465V336.826Z" fill="white" fill-opacity="0.03"/>
<path d="M142.243 167.417H137.751V202.737H142.243V167.417Z" fill="white" fill-opacity="0.03"/>
<path d="M136.307 161.779H129.167V202.737H136.307V161.779Z" fill="#70C0FD"/>
<path d="M266.024 163.58H250.06V202.737H266.024V163.58Z" fill="#AFDBFE"/>
<path d="M247.332 167.417H242.84V202.737H247.332V167.417Z" fill="white" fill-opacity="0.03"/>
<path d="M241.396 161.779H234.256V202.737H241.396V161.779Z" fill="#70C0FD"/>
<path d="M206.501 153.713H197.356V202.737H206.501V153.713Z" fill="#AFDBFE"/>
<path d="M144.69 194.692V202.737H189.629V194.692H144.69Z" fill="#AFDBFE"/>
<path d="M150.901 187.538V194.692H191.095V187.538H150.901Z" fill="white" fill-opacity="0.03"/>
<path d="M144.703 180.385V187.538H184.897V180.385H144.703Z" fill="#70C0FD"/>
<path d="M215.887 162.014H208.667V202.737H215.887V162.014Z" fill="#70C0FD"/>
<path d="M232.092 166.008H218.855V202.737H232.092V166.008Z" fill="white" fill-opacity="0.03"/>
<path d="M361.18 153.713H352.035V202.737H361.18V153.713Z" fill="#AFDBFE"/>
<path d="M370.566 162.014H363.347V202.737H370.566V162.014Z" fill="#70C0FD"/>
<path d="M386.771 166.008H373.534V202.737H386.771V166.008Z" fill="white" fill-opacity="0.03"/>
<path d="M301.857 163.58H285.893V202.737H301.857V163.58Z" fill="#AFDBFE"/>
<path d="M283.165 167.417H278.673V202.737H283.165V167.417Z" fill="white" fill-opacity="0.03"/>
<path d="M277.229 161.779H270.089V202.737H277.229V161.779Z" fill="#70C0FD"/>
<path d="M329.373 167.417H314.853V202.737H329.373V167.417Z" fill="white" fill-opacity="0.03"/>
<path d="M340.042 153.713H330.897V202.737H340.042V153.713Z" fill="#AFDBFE"/>
<path d="M349.428 162.014H342.208V202.737H349.428V162.014Z" fill="#70C0FD"/>
<path d="M312.125 159.116H303.702V202.737H312.125V159.116Z" fill="#70C0FD"/>
<path d="M333.376 248.989H317.412V288.146H333.376V248.989Z" fill="#AFDBFE"/>
<path d="M314.685 252.827H310.192V288.146H314.685V252.827Z" fill="white" fill-opacity="0.03"/>
<path d="M308.748 247.188H301.609V288.145H308.748V247.188Z" fill="#70C0FD"/>
<path d="M369.209 248.989H353.245V288.146H369.209V248.989Z" fill="#AFDBFE"/>
<path d="M350.517 252.827H346.025V288.146H350.517V252.827Z" fill="white" fill-opacity="0.03"/>
<path d="M344.581 247.188H337.441V288.145H344.581V247.188Z" fill="#70C0FD"/>
<path d="M379.478 244.525H371.054V288.145H379.478V244.525Z" fill="#70C0FD"/>
<path d="M166.211 248.989H150.247V288.146H166.211V248.989Z" fill="#AFDBFE"/>
<path d="M147.52 252.827H143.027V288.146H147.52V252.827Z" fill="white" fill-opacity="0.03"/>
<path d="M141.583 247.188H134.443V288.145H141.583V247.188Z" fill="#70C0FD"/>
<path d="M263.92 248.989H247.955V288.146H263.92V248.989Z" fill="#AFDBFE"/>
<path d="M245.228 252.827H240.735V288.146H245.228V252.827Z" fill="white" fill-opacity="0.03"/>
<path d="M239.292 247.188H232.152V288.145H239.292V247.188Z" fill="#70C0FD"/>
<path d="M193.727 252.827H179.207V288.146H193.727V252.827Z" fill="white" fill-opacity="0.03"/>
<path d="M204.396 239.122H195.251V288.146H204.396V239.122Z" fill="#AFDBFE"/>
<path d="M213.782 247.423H206.562V288.146H213.782V247.423Z" fill="#70C0FD"/>
<path d="M176.479 244.525H168.056V288.145H176.479V244.525Z" fill="#70C0FD"/>
<path d="M229.987 251.417H216.75V288.146H229.987V251.417Z" fill="white" fill-opacity="0.03"/>
<path d="M275.767 242.862L263.302 247.208L278.31 288.293L290.775 283.947L275.767 242.862Z" fill="white" fill-opacity="0.03"/>
<path d="M283.536 244.875L277.304 247.048L292.312 288.133L298.544 285.96L283.536 244.875Z" fill="#70C0FD"/>
<path d="M485.85 202.857H482.113V232.242H485.85V202.857Z" fill="white" fill-opacity="0.03"/>
<path d="M480.911 198.165H474.971V232.242H480.911V198.165Z" fill="#70C0FD"/>
<path d="M568.347 198.165H562.406V232.242H568.347V198.165Z" fill="#70C0FD"/>
<path d="M539.313 191.454H531.704V232.242H539.313V191.454Z" fill="#AFDBFE"/>
<path d="M487.886 225.549V232.242H525.276V225.549H487.886Z" fill="#AFDBFE"/>
<path d="M493.054 219.597V225.549H526.496V219.597H493.054Z" fill="white" fill-opacity="0.03"/>
<path d="M487.897 213.645V219.597H521.339V213.645H487.897Z" fill="#A2CFF6"/>
<path d="M547.123 198.361H541.116V232.242H547.123V198.361Z" fill="#70C0FD"/>
<path d="M560.605 201.684H549.592V232.242H560.605V201.684Z" fill="white" fill-opacity="0.03"/>
<path d="M506.612 133.091H499.004V173.88H506.612V133.091Z" fill="#AFDBFE"/>
<path d="M514.421 139.998H508.415V173.88H514.421V139.998Z" fill="#70C0FD"/>
<path d="M527.904 143.321H516.891V173.88H527.904V143.321Z" fill="white" fill-opacity="0.03"/>
<path d="M480.148 144.494H468.067V173.88H480.148V144.494Z" fill="white" fill-opacity="0.03"/>
<path d="M489.025 133.091H481.416V173.88H489.025V133.091Z" fill="#AFDBFE"/>
<path d="M496.834 139.998H490.827V173.88H496.834V139.998Z" fill="#70C0FD"/>
<path d="M465.798 137.587H458.79V173.88H465.798V137.587Z" fill="#70C0FD"/>
<path d="M531.699 137.75L526.513 139.558L539 173.742L544.185 171.934L531.699 137.75Z" fill="#70C0FD"/>
<path d="M571.659 173.88H452.864V180.519H571.659V173.88Z" fill="#4188E4"/>
<path d="M589.13 230.424H470.335V237.063H589.13V230.424Z" fill="#4188E4"/>
<path d="M627.357 165.606C644.2 165.583 657.835 152.234 657.812 135.791C657.788 119.349 644.115 106.038 627.271 106.061C610.428 106.084 596.793 119.432 596.816 135.875C596.84 152.318 610.513 165.629 627.357 165.606Z" fill="#4188E4"/>
<path d="M654.125 134.192C655.054 148.647 643.803 161.101 628.996 162.008C614.188 162.915 601.431 151.932 600.502 137.477C599.573 123.021 610.823 110.568 625.631 109.661C640.438 108.753 653.195 119.736 654.125 134.192Z" fill="white" fill-opacity="0.03"/>
<path d="M600.931 135.363V136.041H609.975V135.363H600.931Z" fill="#B0C1EC"/>
<path d="M644.707 135.363V136.041H653.751V135.363H644.707Z" fill="#B0C1EC"/>
<path d="M627.623 110.261H626.928V119.089H627.623V110.261Z" fill="#B0C1EC"/>
<path d="M627.623 152.825H626.928V161.653H627.623V152.825Z" fill="#B0C1EC"/>
<path d="M628.062 135.834C628.062 136.238 627.726 136.565 627.313 136.565C626.9 136.565 626.565 136.238 626.565 135.834C626.565 135.431 626.9 135.104 627.313 135.104C627.726 135.104 628.062 135.431 628.062 135.834Z" fill="#B0C1EC"/>
<path d="M627.313 136.161C627.227 136.161 627.142 136.129 627.077 136.065L613.625 122.934C613.495 122.807 613.495 122.6 613.625 122.472C613.755 122.345 613.968 122.345 614.098 122.472L627.549 135.604C627.68 135.731 627.68 135.938 627.549 136.065C627.484 136.129 627.399 136.161 627.313 136.161Z" fill="#B0C1EC"/>
<path d="M631.638 149.105C631.582 149.078 631.537 149.03 631.516 148.967L627.168 136.147C627.126 136.022 627.196 135.888 627.323 135.846C627.451 135.805 627.588 135.873 627.631 135.997L631.978 148.818C632.02 148.943 631.951 149.077 631.824 149.118C631.76 149.139 631.694 149.132 631.638 149.105Z" fill="#B0C1EC"/>
<path d="M380.084 168.174L380.406 163.696L387.3 164.415L387.707 167.286C386.396 167.822 383.943 168.469 380.084 168.174Z" fill="#F99893"/>
<path d="M365.256 146.249C365.067 146.262 364.937 146.065 365.03 145.903C365.752 144.652 367.996 140.7 367.712 140.448C367.375 140.149 365.281 143.632 364.865 143.554C364.449 143.476 366.579 140.129 366.165 139.866C365.751 139.603 363.914 142.718 363.7 142.667C363.485 142.615 364.92 139.447 364.771 139.149C364.623 138.852 362.671 142.052 362.393 142.062C362.115 142.072 362.71 139.425 362.483 139.349C362.257 139.273 362.119 139.185 359.032 144.768L357.224 147.981L358.013 149.334L360.706 150.261C360.706 150.261 368.304 146.856 368.358 146.524C368.409 146.207 368.171 146.056 365.256 146.249Z" fill="#FFC0BB"/>
<path d="M373.77 157.963C373.634 155.976 373.462 153.987 373.608 152.248C373.639 151.875 373.65 151.502 373.654 151.128C373.67 149.619 373.951 148.063 374.563 146.516C376.53 141.54 381.444 138.361 386.506 138.801C393.325 139.394 397.895 145.906 396.67 152.816C397.458 152.517 398.276 152.554 398.923 153.003C400.164 153.865 400.301 155.905 399.229 157.561C398.157 159.217 396.282 159.861 395.041 158.999C394.869 158.88 394.72 158.735 394.591 158.574C392.979 164.359 386.276 167.262 380.804 166.255C378.128 165.762 374.192 164.129 373.77 157.963Z" fill="#FFC0BB"/>
<path d="M380.782 152.286C380.837 152.84 380.798 153.396 380.693 153.947C380.639 154.223 380.564 154.495 380.455 154.767C380.341 155.036 380.202 155.308 379.951 155.543L379.845 155.624L379.752 155.693C379.712 155.726 379.658 155.75 379.627 155.789C379.549 155.856 379.493 155.935 379.456 156.022C379.372 156.195 379.41 156.414 379.501 156.623C379.705 157.049 380.169 157.368 380.678 157.602C380.119 157.577 379.501 157.361 379.134 156.828C378.955 156.569 378.857 156.204 378.972 155.859C379 155.773 379.035 155.691 379.088 155.619C379.132 155.54 379.193 155.478 379.254 155.415C379.313 155.348 379.388 155.308 379.456 155.255C379.497 155.227 379.505 155.216 379.527 155.199L379.586 155.153C379.743 155.013 379.872 154.793 379.987 154.568C380.108 154.342 380.189 154.09 380.286 153.842C380.461 153.337 380.614 152.816 380.782 152.286Z" fill="#F99893"/>
<path d="M384.126 153.426C383.988 153.998 384.352 154.57 384.939 154.704C385.525 154.838 386.112 154.483 386.249 153.911C386.387 153.339 386.023 152.767 385.436 152.632C384.85 152.498 384.263 152.854 384.126 153.426Z" fill="#333333"/>
<path d="M376.334 152.219C376.197 152.791 376.561 153.363 377.147 153.498C377.734 153.631 378.321 153.276 378.458 152.704C378.595 152.132 378.232 151.56 377.645 151.426C377.058 151.292 376.471 151.647 376.334 152.219Z" fill="#333333"/>
<path d="M383.931 150.902C384.497 150.777 385.028 150.689 385.55 150.65C386.071 150.612 386.576 150.637 387.063 150.732C387.546 150.833 388.03 150.972 388.485 151.218C388.73 151.313 388.937 151.474 389.182 151.597C389.417 151.734 389.632 151.903 389.897 152.04C389.78 151.784 389.639 151.531 389.471 151.296C389.282 151.081 389.103 150.841 388.86 150.669C388.41 150.278 387.826 150.029 387.226 149.909C386.621 149.791 385.991 149.831 385.42 150.006C384.853 150.185 384.322 150.475 383.931 150.902Z" fill="#FEB546"/>
<path d="M385.668 144.268C377.468 144.128 377.504 139.27 377.504 139.27L377.723 139.483C378.332 139.876 379.624 139.974 379.624 139.974C378.204 136.532 382.441 135.834 382.441 135.834C382.441 135.834 379.621 138.596 385.979 138.584C392.336 138.571 393.753 140.635 393.753 140.635C393.838 140.828 393.874 141.008 393.872 141.179L393.872 141.178C393.872 141.178 393.954 141.495 393.79 141.927C393.665 142.288 393.45 142.625 393.198 142.922C392.876 143.288 392.504 143.622 392.084 143.882C391.254 144.415 390.311 144.769 389.353 144.968C389.115 145.032 388.872 145.059 388.63 145.097C388.388 145.128 388.147 145.168 387.904 145.191L387.175 145.225C386.932 145.234 386.69 145.256 386.448 145.237C385.964 145.215 385.48 145.202 385.001 145.146C384.522 145.077 384.045 145.01 383.573 144.912C384.057 144.862 384.534 144.842 385.009 144.819C385.247 144.819 385.484 144.784 385.72 144.767C385.957 144.746 386.192 144.734 386.428 144.717C386.898 144.676 387.363 144.613 387.83 144.564L388.52 144.448C388.749 144.409 388.982 144.381 389.205 144.318L389.883 144.165L390.543 143.96C390.716 143.918 390.877 143.848 391.04 143.781C389.828 144.104 388.108 144.31 385.668 144.268Z" fill="#FEB546"/>
<path d="M377.538 148.806C377.002 148.546 376.387 148.409 375.771 148.432C375.159 148.458 374.541 148.614 374.034 148.93C373.97 148.961 373.91 148.997 373.851 149.036C373.81 149.268 373.776 149.499 373.748 149.73C373.938 149.655 374.119 149.572 374.314 149.529C374.804 149.357 375.303 149.294 375.797 149.269C376.294 149.25 376.797 149.304 377.305 149.422C377.813 149.541 378.323 149.709 378.863 149.921C378.546 149.438 378.069 149.07 377.538 148.806Z" fill="#FEB546"/>
<path d="M385.735 157.995C385.223 158.689 384.606 159.279 383.843 159.569C383.467 159.714 383.062 159.806 382.644 159.802C382.435 159.825 382.226 159.784 382.011 159.779C381.798 159.759 381.587 159.712 381.363 159.693C381.558 159.791 381.76 159.888 381.97 159.962C382.187 160.011 382.403 160.094 382.632 160.099C383.085 160.165 383.557 160.082 383.989 159.921C384.419 159.751 384.804 159.479 385.099 159.141C385.394 158.804 385.624 158.415 385.735 157.995Z" fill="#F99893"/>
<path d="M355.602 466.091L355.587 459.073L347.366 456.866L345.538 457.655L345.244 466.112L347.847 473.474L355.602 466.091Z" fill="#FFC0BB"/>
<path d="M337.433 322.212L343.552 461.036L357.13 461.009L368.876 356.047L353.092 309.063L337.433 322.212Z" fill="#1E1E1E"/>
<path d="M350.314 226.698C350.314 226.698 327.421 253.684 321.534 269.74L346.883 263.658L350.314 226.698Z" fill="#FEB546"/>
<path d="M408.111 465.987L408.097 458.969L399.875 456.762L398.048 457.551L397.753 466.008L400.357 473.37L408.111 465.987Z" fill="#FFC0BB"/>
<path d="M343.264 322.495L396.745 460.931L409.77 459.866C409.77 459.866 397.501 334.01 387.771 321.951C378.042 309.891 352.565 311.402 352.565 311.402L343.264 322.495Z" fill="#282828"/>
<path d="M376.262 223.604C376.262 223.604 398.062 222.884 402.928 232.68C407.793 242.475 418.632 295.535 396.659 296.423C396.659 296.423 391.641 296.772 389.038 293.227L389.973 326.528C389.973 326.528 356.768 334.877 337.717 326.631C337.717 326.631 337.356 236.191 350.314 226.698C350.314 226.698 356.538 224.15 376.262 223.604Z" fill="#FEB546"/>
<path d="M372.421 255.601L374.105 259.124C374.244 259.415 374.115 259.761 373.817 259.897L366.087 263.405C365.474 263.684 364.869 263.011 365.232 262.455L367.897 257.247C367.897 257.247 370.335 258.169 372.421 255.601Z" fill="#3660AC"/>
<path d="M376.943 248.243L371.188 252.183L373.557 257.748L367.242 257.761L368.617 224.405L379.22 210.135L398.21 210.097C398.21 210.097 403.959 229.4 378.016 234.64L376.943 248.243Z" fill="#333333"/>
<path d="M367.423 179.046L371.789 169.54L368.997 168.658C362.973 167.928 357.537 164.653 356.706 163.632C354.942 161.467 363.105 148.794 363.105 148.794L357.872 147.254C357.872 147.254 344.068 162.2 348.779 168.167C353.49 174.133 365.975 178.78 365.975 178.78L367.423 179.046Z" fill="#FFC0BB"/>
<path d="M358.846 253.114L360.134 256.793C360.241 257.097 360.074 257.427 359.763 257.531L350.932 260.482C350.292 260.695 349.764 259.963 350.186 259.448L353.946 254.751C353.946 254.751 356.491 255.448 358.846 253.114Z" fill="#3660AC"/>
<path d="M359.809 216.644C359.809 216.644 350.101 220.526 350.338 238.496L352.423 255.949C352.423 255.949 359.746 253.558 359.297 253.559C358.848 253.56 363.319 229.708 363.319 229.708L367.162 219.227L359.809 216.644Z" fill="#333333"/>
<path d="M393.614 179.857C400.362 182.804 415.856 202.822 420.869 209.462L421.001 209.746L421.923 213.08C422.745 215.772 423.452 218.69 423.711 218.769C424.073 218.88 424.292 218.641 424.566 215.351C424.583 215.137 424.837 215.026 425.01 215.157C426.353 216.177 430.599 219.358 430.943 219.084C431.352 218.757 427.629 215.824 427.792 215.373C427.955 214.921 431.512 217.872 431.892 217.454C432.271 217.036 428.935 214.452 429.032 214.222C429.129 213.991 432.597 216.133 432.971 216.018C433.346 215.903 429.929 213.176 429.965 212.864C430.002 212.552 433.002 213.668 433.13 213.428C433.258 213.188 433.798 213.732 427.785 209.331C427.785 209.331 426.249 208.266 425.634 207.894L424.753 206.084C418.778 190.035 397.386 171.485 397.386 171.485L393.614 179.857Z" fill="#FFC0BB"/>
<path d="M375.639 216.612L376.503 223.963L376.035 224.541C372.992 228.29 368.186 230.243 363.319 229.709L365.038 217.132L375.639 216.612Z" fill="#FFC0BB"/>
<path d="M363.944 225.135L365.038 217.132L375.639 216.612L376.116 220.674C374.186 222.298 370.283 224.736 363.944 225.135Z" fill="#F99893"/>
<path d="M388.265 171.232C388.265 171.232 398.657 169.182 402.69 173.908C406.347 178.192 411.474 182.568 411.129 182.456C410.785 182.344 403.877 189.909 403.877 189.909L397.751 183.948L399.653 210.879L365.563 210.947L370.269 180.323C370.269 180.323 368.559 180.174 363.522 178.831L367.09 167.385C367.09 167.385 376.614 170.578 381.229 170.907C385.843 171.236 388.265 171.232 388.265 171.232Z" fill="#F9537F"/>
<path d="M356.441 202.626C356.691 204.447 355.682 206.082 354.188 206.276C352.695 206.471 351.281 205.152 351.031 203.331C350.782 201.51 351.79 199.875 353.283 199.681C354.778 199.486 356.191 200.804 356.441 202.626Z" fill="#F99893"/>
<path d="M354.36 212.384C354.129 211.567 353.974 210.723 353.9 209.862C353.655 207.539 353.846 205.186 354.173 203.175C354.243 202.743 354.287 202.309 354.323 201.873C354.469 200.114 354.95 198.332 355.843 196.6C358.718 191.029 365.125 187.906 371.416 189.024C379.891 190.531 385.061 198.675 382.954 206.591C383.964 206.336 384.984 206.477 385.755 207.078C387.235 208.232 387.236 210.629 385.759 212.433C384.281 214.237 381.883 214.764 380.404 213.611C380.198 213.451 380.024 213.265 379.876 213.061C377.379 219.619 370.336 223.384 363.579 221.555C360.275 220.66 357.62 218.582 355.922 215.891C355.803 215.729 355.683 215.544 355.561 215.334C355.025 214.41 354.637 213.414 354.36 212.384Z" fill="#FFC0BB"/>
<path d="M369.376 205.186C369.188 205.847 369.584 206.53 370.261 206.714C370.938 206.897 371.64 206.51 371.827 205.85C372.015 205.19 371.619 204.506 370.942 204.323C370.265 204.139 369.564 204.526 369.376 205.186Z" fill="#333333"/>
<path d="M358.639 202.986C358.451 203.649 358.849 204.335 359.528 204.519C360.207 204.702 360.91 204.315 361.098 203.652C361.287 202.99 360.889 202.304 360.21 202.12C359.53 201.936 358.827 202.324 358.639 202.986Z" fill="#333333"/>
<path d="M368.571 202.415C369.239 202.336 369.867 202.297 370.48 202.322C371.092 202.345 371.679 202.443 372.234 202.624C372.783 202.811 373.326 203.046 373.816 203.401L374.01 203.523C374.074 203.565 374.128 203.619 374.191 203.664L374.562 203.95C374.81 204.146 375.03 204.375 375.308 204.576C375.203 204.268 375.074 203.959 374.91 203.667C374.715 203.4 374.549 203.094 374.29 202.866C373.826 202.356 373.19 201.991 372.519 201.769C371.842 201.549 371.113 201.504 370.43 201.619C369.749 201.741 369.093 201.989 368.571 202.415Z" fill="#07085B"/>
<path d="M363.569 201.324C363.281 200.722 362.796 200.226 362.233 199.832C361.665 199.444 360.986 199.183 360.277 199.101C359.574 199.023 358.838 199.089 358.197 199.358C357.862 199.456 357.579 199.664 357.286 199.825C357.01 200.021 356.759 200.247 356.529 200.483C356.869 200.416 357.168 200.3 357.478 200.226L357.938 200.121C358.014 200.107 358.087 200.08 358.163 200.069L358.391 200.039C358.989 199.921 359.583 199.933 360.162 199.993C360.743 200.059 361.317 200.214 361.881 200.447C362.446 200.68 362.998 200.976 363.569 201.324Z" fill="#07085B"/>
<path d="M365.538 201.605C365.573 202.504 365.457 203.396 365.234 204.274C365.121 204.714 364.973 205.146 364.771 205.574C364.562 205.997 364.312 206.423 363.883 206.778L363.706 206.899L363.548 207.002C363.48 207.052 363.391 207.085 363.337 207.144C363.206 207.245 363.107 207.368 363.04 207.504C362.887 207.775 362.927 208.131 363.054 208.477C363.341 209.182 364.058 209.738 364.856 210.163C363.957 210.071 362.983 209.665 362.443 208.772C362.179 208.339 362.057 207.742 362.275 207.196C362.329 207.061 362.394 206.931 362.485 206.819C362.564 206.696 362.669 206.602 362.773 206.506C362.874 206.404 362.999 206.347 363.112 206.268C363.183 206.226 363.196 206.209 363.233 206.184L363.332 206.116C363.598 205.904 363.829 205.562 364.035 205.209C364.251 204.856 364.407 204.457 364.588 204.067C364.919 203.27 365.216 202.444 365.538 201.605Z" fill="#F99893"/>
<path d="M357.467 182.64C360.497 181.393 365.9 180.608 371.201 181.21C370.085 180.222 369.425 179.465 369.767 179.282C372.55 177.793 380.114 183.575 382.514 185.506C383.099 184.928 385.093 183.175 386.755 184.324C388.726 185.688 384.474 186.839 384.474 186.839C384.474 186.839 387.299 187.534 387.759 189.112C388.1 190.278 386.373 189.842 385.45 189.536C385.736 189.67 386.122 189.938 386.517 190.359H386.517C386.517 190.359 390.049 194.059 389.423 195.847C389.272 196.279 388.876 196.266 388.361 196C388.571 197.968 388.86 201.681 388.099 202.062C387.664 202.281 387.309 202.017 387.043 201.637C386.115 204.476 384.981 206.653 384.981 206.653C381.615 205.646 378.231 208.885 378.231 208.885C379.646 204.483 377.436 195.507 377.436 195.507C377.436 195.507 363.547 199.122 366.243 195.636C366.243 195.636 350.126 198.654 354.386 191.841C354.386 191.841 348.578 190.657 356.281 185.912C356.281 185.912 352.044 184.87 357.467 182.64Z" fill="#333333"/>
<path d="M367.149 212.83C366.645 214.05 364.994 214.805 363.168 214.565C361.342 214.325 359.954 213.169 359.799 211.862L367.149 212.83Z" fill="white" fill-opacity="0.03"/>
<path d="M380.406 219.2C379.541 219.202 368.711 222.106 368.395 229.789C368.078 237.472 382.324 226.635 382.324 226.635L380.406 219.2Z" fill="#333333"/>
<path d="M364.937 233.833C364.502 232.445 362.332 229.141 358.091 228.473C354.502 227.908 349.485 234.308 348.027 236.287C348.706 236.621 349.367 236.968 350.022 237.334C350.78 237.757 351.524 238.202 352.257 238.666C352.991 239.127 353.709 239.613 354.412 240.12C354.779 240.38 355.137 240.65 355.49 240.927C357.837 239.31 360.436 237.929 361.833 238.532C364.776 239.802 365.373 235.221 364.937 233.833Z" fill="#FFC0BB"/>
<path d="M359.268 239.569L349.29 231.9C349.29 231.9 310.894 269.715 322.547 281.951C334.201 294.188 359.268 239.569 359.268 239.569Z" fill="#FEB546"/>
<path d="M387.3 164.415L388.265 171.231C388.265 171.231 383.076 174.766 379.899 170.756L380.406 163.696L387.3 164.415Z" fill="#FFC0BB"/>
<path d="M370.875 251.729C371.544 251.176 372.22 250.631 372.926 250.127C373.627 249.617 374.344 249.128 375.076 248.664C375.807 248.197 376.549 247.749 377.305 247.323C378.063 246.896 378.823 246.489 379.615 246.106L379.828 246.004L379.997 246.152C380.588 246.667 381.029 247.217 381.49 247.774C381.946 248.329 382.38 248.896 382.812 249.465C383.671 250.604 384.505 251.758 385.33 252.917C386.962 255.247 388.556 257.6 390.136 259.961C390.696 260.8 391.252 261.641 391.808 262.481C391.654 261.655 391.543 260.827 391.453 259.998C391.339 258.989 391.27 257.978 391.211 256.966C391.167 255.954 391.131 254.941 391.141 253.926C391.146 252.911 391.178 251.895 391.286 250.875C391.5 251.88 391.636 252.887 391.746 253.896C391.86 254.906 391.929 255.917 391.989 256.928C392.034 257.941 392.07 258.953 392.06 259.969C392.055 260.872 392.026 261.777 391.943 262.685C392.909 264.145 393.87 265.609 394.814 267.083C396.35 269.472 397.885 271.86 399.381 274.273L394.566 267.241L389.724 260.229C388.101 257.9 386.464 255.578 384.792 253.284C383.961 252.134 383.123 250.988 382.263 249.863C381.832 249.302 381.397 248.742 380.947 248.2C380.552 247.725 380.14 247.24 379.711 246.841C379.026 247.184 378.341 247.552 377.671 247.936C376.929 248.36 376.201 248.806 375.485 249.269C374.767 249.731 374.066 250.215 373.382 250.72C372.762 251.168 372.17 251.649 371.584 252.136C372.796 255.588 374.038 259.034 375.317 262.466C376.618 265.981 377.986 269.472 379.349 272.964C380.725 276.452 382.148 279.922 383.689 283.341C384.452 285.054 385.242 286.756 386.099 288.425C386.53 289.258 386.976 290.085 387.457 290.891C387.931 291.703 388.449 292.489 389.039 293.226C387.798 291.796 386.832 290.16 385.914 288.52C385.002 286.872 384.157 285.19 383.338 283.496C381.725 280.099 380.234 276.648 378.788 273.181C377.334 269.717 375.99 266.211 374.65 262.705C373.319 259.195 372.014 255.677 370.764 252.136L370.678 251.892L370.875 251.729Z" fill="white" fill-opacity="0.03"/>
<path d="M362.375 243.881C362.805 242.491 364.961 239.179 369.199 238.495C372.786 237.915 377.829 244.294 379.295 246.269C378.618 246.605 377.958 246.955 377.305 247.323C376.549 247.749 375.807 248.198 375.076 248.664C374.344 249.129 373.627 249.617 372.926 250.127C372.561 250.388 372.204 250.66 371.852 250.938C369.498 249.331 366.894 247.96 365.499 248.568C362.561 249.849 361.945 245.271 362.375 243.881Z" fill="#FFC0BB"/>
<path d="M322.547 281.951C322.994 282.4 323.458 282.85 324.03 283.155L324.238 283.279C324.31 283.314 324.385 283.344 324.459 283.377C324.609 283.438 324.755 283.51 324.909 283.561C325.222 283.648 325.534 283.745 325.861 283.772C326.183 283.833 326.512 283.808 326.838 283.813C327.162 283.774 327.491 283.758 327.807 283.675C328.45 283.552 329.058 283.311 329.653 283.054C330.831 282.508 331.904 281.777 332.906 280.976C333.909 280.174 334.846 279.299 335.742 278.389C339.311 274.725 342.254 270.554 345.031 266.319C346.411 264.193 347.747 262.04 349.02 259.852C350.29 257.663 351.52 255.453 352.716 253.226C353.91 250.998 355.081 248.757 356.205 246.495C357.321 244.228 358.411 241.952 359.453 239.65L359.518 239.507L359.393 239.413C357.72 238.148 356.04 236.891 354.352 235.643C352.668 234.392 350.985 233.138 349.29 231.9C350.921 233.218 352.564 234.521 354.206 235.826C355.845 237.134 357.49 238.434 359.143 239.725L359.083 239.488C357.998 241.76 356.861 244.013 355.701 246.252C354.547 248.494 353.376 250.728 352.166 252.941C350.957 255.155 349.715 257.352 348.435 259.525C347.152 261.698 345.857 263.863 344.49 265.985C343.126 268.108 341.713 270.201 340.208 272.229C338.701 274.253 337.14 276.242 335.408 278.082C333.673 279.906 331.779 281.64 329.53 282.808C328.96 283.075 328.376 283.33 327.758 283.468C327.454 283.559 327.138 283.584 326.825 283.632C326.511 283.637 326.192 283.672 325.878 283.622C324.603 283.529 323.446 282.836 322.547 281.951Z" fill="white" fill-opacity="0.03"/>
<path d="M384.375 478.268L411.021 477.408C411.663 477.388 412.167 476.862 412.145 476.234L412.126 475.658C412.105 475.03 411.567 474.538 410.925 474.559L384.279 475.419C383.637 475.439 383.134 475.965 383.155 476.592L383.174 477.169C383.195 477.797 383.733 478.289 384.375 478.268Z" fill="white" fill-opacity="0.03"/>
<path d="M410.468 465.911L411.696 473.803C411.847 474.775 411.318 475.681 410.583 475.704L385.053 476.528C384.391 476.549 383.721 476.166 383.347 475.417C382.964 474.649 382.853 473.477 383.942 471.862C386.098 468.665 393.451 467.641 397.075 464.893C397.149 464.837 397.237 464.805 397.331 464.802L409.079 464.423C409.744 464.401 410.332 465.031 410.468 465.911Z" fill="#333333"/>
<path d="M399.148 469.348C399.329 469.232 399.386 468.926 399.271 468.698C398.734 467.629 397.077 465.037 393.908 465.682C393.725 465.72 393.608 465.962 393.648 466.208L393.649 466.216C393.687 466.453 393.859 466.604 394.036 466.569C396.877 466 398.288 468.287 398.724 469.183C398.817 469.375 398.998 469.445 399.148 469.348Z" fill="white" fill-opacity="0.03"/>
<path d="M396.531 470.454C396.712 470.337 396.769 470.031 396.655 469.803C396.117 468.734 394.46 466.142 391.291 466.787C391.108 466.825 390.991 467.068 391.031 467.313L391.032 467.321C391.07 467.559 391.242 467.71 391.419 467.674C394.26 467.106 395.671 469.392 396.107 470.289C396.2 470.48 396.381 470.551 396.531 470.454Z" fill="white" fill-opacity="0.03"/>
<path d="M394.097 471.484C394.278 471.368 394.335 471.062 394.221 470.834C393.683 469.765 392.027 467.173 388.857 467.819C388.674 467.856 388.557 468.099 388.597 468.344L388.598 468.352C388.636 468.59 388.808 468.741 388.985 468.705C391.826 468.137 393.237 470.423 393.673 471.319C393.766 471.511 393.947 471.582 394.097 471.484Z" fill="white" fill-opacity="0.03"/>
<path d="M331.174 478.373L357.82 477.514C358.462 477.494 358.965 476.968 358.944 476.34L358.925 475.764C358.903 475.136 358.366 474.644 357.723 474.665L331.078 475.525C330.435 475.545 329.932 476.071 329.954 476.698L329.973 477.275C329.994 477.902 330.532 478.394 331.174 478.373Z" fill="white" fill-opacity="0.03"/>
<path d="M357.268 466.017L358.495 473.908C358.647 474.881 358.117 475.786 357.382 475.81L331.853 476.634C331.19 476.655 330.52 476.272 330.146 475.523C329.763 474.755 329.652 473.583 330.741 471.968C332.898 468.771 340.25 467.746 343.874 464.999C343.948 464.942 344.036 464.911 344.13 464.908L355.878 464.529C356.543 464.507 357.131 465.137 357.268 466.017Z" fill="#333333"/>
<path d="M345.947 469.454C346.128 469.337 346.185 469.031 346.07 468.804C345.532 467.734 343.876 465.142 340.707 465.788C340.523 465.825 340.407 466.068 340.447 466.314L340.448 466.321C340.486 466.559 340.657 466.71 340.835 466.675C343.675 466.106 345.087 468.392 345.523 469.289C345.616 469.481 345.797 469.551 345.947 469.454Z" fill="white" fill-opacity="0.03"/>
<path d="M343.33 470.559C343.511 470.442 343.568 470.137 343.454 469.909C342.916 468.84 341.259 466.248 338.09 466.893C337.907 466.931 337.79 467.173 337.83 467.419L337.831 467.427C337.87 467.664 338.041 467.815 338.218 467.78C341.059 467.211 342.47 469.498 342.906 470.394C342.999 470.586 343.18 470.656 343.33 470.559Z" fill="white" fill-opacity="0.03"/>
<path d="M340.896 471.59C341.077 471.474 341.134 471.168 341.02 470.94C340.482 469.871 338.826 467.279 335.656 467.924C335.473 467.962 335.356 468.205 335.396 468.45L335.397 468.458C335.436 468.695 335.607 468.846 335.784 468.811C338.625 468.243 340.036 470.529 340.472 471.425C340.565 471.617 340.746 471.687 340.896 471.59Z" fill="white" fill-opacity="0.03"/>
<path d="M526.569 420.291H618.029V383.538H526.569V420.291Z" fill="#E03268"/>
<path d="M688.292 306.071C687.152 306.149 596.656 306.071 596.656 306.071V389.952H655.319L686.723 359.295L688.292 306.071Z" fill="#FF5B7E"/>
<path d="M634.078 265.252L634.618 266.518C640.299 279.848 647.215 292.658 655.485 304.626C662.044 314.115 667.722 326.154 657.359 329.448C657.359 329.448 659.317 346.028 646.915 347.729C646.915 347.729 650.396 361.121 635.384 361.121C620.371 361.121 600.549 360.671 600.549 360.671C600.549 360.671 583.219 364.498 585.612 349.83C585.612 349.83 571.738 347.485 581.723 320.513C587.101 305.989 590.396 290.821 591.712 275.43C592.255 269.079 593.305 263.125 595.251 259.863C600.789 250.585 624.94 243.782 634.078 265.252Z" fill="#FEB546"/>
<path d="M528.403 353.198C528.403 353.198 591.164 356.859 591.164 353.198C591.164 349.538 591.164 369.148 591.164 369.148C591.164 369.148 560.47 374.523 557.016 374.523C553.562 374.523 537.48 382.844 535.349 383.537C533.218 384.231 528.639 365.652 528.403 365.493C528.167 365.334 528.403 353.198 528.403 353.198Z" fill="#F9537F"/>
<path d="M683.509 369.379H693.076C695.011 369.379 696.58 367.847 696.58 365.956V309.494C696.58 307.604 695.011 306.071 693.076 306.071H683.509C681.573 306.071 680.005 307.604 680.005 309.494V365.956C680.005 367.847 681.573 369.379 683.509 369.379Z" fill="#E03268"/>
<path d="M620.275 353.198H694.389C701.058 353.198 706.465 358.477 706.465 364.988V406.55C706.465 423.122 692.704 436.556 675.728 436.556L599.418 437.012C599.418 437.012 604.715 435.634 605.586 434.146C609.179 428.011 618.381 412.238 618.381 411.68C618.381 410.987 620.275 353.198 620.275 353.198Z" fill="#F9537F"/>
<path d="M538.111 362.676V403.177C538.111 411.279 544.839 417.847 553.139 417.847H595.54C603.839 417.847 610.567 411.279 610.567 403.177V362.676C610.567 357.442 614.913 353.198 620.275 353.198C625.637 353.198 629.983 357.442 629.983 362.676V404.221C629.983 422.411 614.879 437.156 596.246 437.156H552.432C533.8 437.156 518.695 422.411 518.695 404.221V362.676C518.695 357.442 523.041 353.198 528.403 353.198C533.765 353.198 538.111 357.442 538.111 362.676Z" fill="#FF85A5"/>
<path d="M536.9 456.422L535.356 468.522L527.045 469.151L527.173 457.93L536.9 456.422Z" fill="#FFC0BB"/>
<path d="M514.416 478.008L537.121 478.158C537.618 478.161 538.017 477.78 538.012 477.306L538.007 476.668C538.002 476.195 537.597 475.808 537.1 475.804L514.395 475.655C513.899 475.652 513.5 476.033 513.504 476.506L513.51 477.145C513.514 477.618 513.919 478.005 514.416 478.008Z" fill="#3D3A55"/>
<path d="M536.813 468.655L537.683 475.204C537.791 476.011 537.324 476.742 536.703 476.738L515.11 476.595C514.55 476.591 513.993 476.254 513.692 475.624C513.384 474.978 513.315 474.007 514.27 472.71C516.18 470.115 522.526 469.521 525.612 467.316L535.67 467.382C536.232 467.386 536.716 467.925 536.813 468.655Z" fill="#E03268"/>
<path d="M527.173 471.126C527.328 471.035 527.383 470.786 527.291 470.594C526.859 469.694 525.515 467.503 522.822 467.933C522.667 467.958 522.563 468.154 522.591 468.358L522.592 468.365C522.62 468.563 522.761 468.693 522.912 468.669C525.324 468.292 526.468 470.223 526.818 470.976C526.893 471.138 527.044 471.202 527.173 471.126Z" fill="white" fill-opacity="0.03"/>
<path d="M524.938 471.954C525.094 471.863 525.149 471.613 525.056 471.421C524.624 470.521 523.279 468.33 520.587 468.761C520.432 468.786 520.328 468.982 520.356 469.186L520.357 469.193C520.385 469.39 520.526 469.52 520.677 469.496C523.09 469.119 524.234 471.05 524.583 471.804C524.658 471.965 524.809 472.029 524.938 471.954Z" fill="white" fill-opacity="0.03"/>
<path d="M522.86 472.726C523.015 472.635 523.07 472.385 522.978 472.193C522.546 471.294 521.201 469.102 518.509 469.533C518.353 469.558 518.249 469.754 518.278 469.958L518.279 469.965C518.306 470.162 518.448 470.292 518.598 470.268C521.011 469.891 522.155 471.822 522.505 472.576C522.58 472.737 522.731 472.801 522.86 472.726Z" fill="white" fill-opacity="0.03"/>
<path opacity="0.3" d="M530.94 476.699C532.593 471.424 535.521 470.859 537.124 470.992L537.683 475.204C537.791 476.011 537.324 476.742 536.703 476.738L530.94 476.699Z" fill="#E87B50"/>
<path d="M552.729 456.68L549.054 468.356L540.596 468.413L542.069 459.889L552.729 456.68Z" fill="#FFC0BB"/>
<path d="M528.446 478.225L551.152 478.374C551.648 478.377 552.047 477.996 552.043 477.523L552.037 476.884C552.033 476.411 551.627 476.024 551.131 476.021L528.425 475.871C527.929 475.868 527.53 476.25 527.534 476.723L527.54 477.361C527.544 477.835 527.95 478.221 528.446 478.225Z" fill="#3D3A55"/>
<path d="M550.844 468.871L551.715 475.421C551.822 476.228 551.355 476.958 550.734 476.954L529.142 476.812C528.581 476.808 528.023 476.47 527.723 475.84C527.416 475.195 527.346 474.224 528.301 472.926C530.211 470.331 536.557 469.737 539.643 467.532L549.701 467.598C550.263 467.602 550.746 468.141 550.844 468.871Z" fill="#F9537F"/>
<path d="M541.204 471.343C541.36 471.252 541.415 471.002 541.322 470.81C540.89 469.91 539.546 467.719 536.853 468.15C536.698 468.175 536.594 468.371 536.622 468.575L536.623 468.582C536.651 468.779 536.792 468.909 536.943 468.885C539.355 468.508 540.5 470.439 540.849 471.193C540.924 471.354 541.075 471.418 541.204 471.343Z" fill="white" fill-opacity="0.03"/>
<path d="M538.97 472.17C539.125 472.079 539.179 471.829 539.088 471.637C538.656 470.738 537.311 468.546 534.618 468.977C534.463 469.002 534.359 469.199 534.387 469.402L534.389 469.409C534.416 469.606 534.557 469.736 534.708 469.713C537.121 469.335 538.265 471.267 538.614 472.021C538.689 472.181 538.84 472.245 538.97 472.17Z" fill="white" fill-opacity="0.03"/>
<path d="M536.891 472.942C537.046 472.852 537.101 472.601 537.009 472.41C536.577 471.51 535.232 469.318 532.54 469.749C532.384 469.774 532.28 469.971 532.308 470.175L532.31 470.181C532.337 470.379 532.479 470.508 532.629 470.485C535.042 470.107 536.186 472.039 536.535 472.793C536.61 472.953 536.762 473.017 536.891 472.942Z" fill="white" fill-opacity="0.03"/>
<path opacity="0.3" d="M544.971 476.916C546.624 471.641 549.551 471.075 551.154 471.208L551.714 475.421C551.821 476.228 551.355 476.958 550.734 476.954L544.971 476.916Z" fill="#E87B50"/>
<path d="M537.964 440.471H679.982C680.485 440.471 680.893 440.073 680.893 439.581V437.155C680.893 436.664 680.485 436.265 679.982 436.265H537.964C537.461 436.265 537.053 436.663 537.053 437.154V439.581C537.054 440.073 537.461 440.471 537.964 440.471Z" fill="#3D3A55"/>
<path d="M606.829 301.388C606.829 301.388 596.717 301.805 591.43 308.089C586.144 314.374 571.151 376.026 571.151 376.026L588.012 374.266C588.012 374.266 609.938 344.98 609.938 344.226C609.939 343.472 606.829 301.388 606.829 301.388Z" fill="#3272C2"/>
<path d="M626.702 301.485C626.702 301.485 607.345 301.447 607.046 301.467C606.747 301.485 605.262 301.331 604.715 301.89C604.169 302.449 603.226 305.529 605.918 307.037C608.611 308.545 602.888 308.608 610.191 309.865C617.495 311.122 615.306 312.819 620.843 310.619C626.379 308.419 627.092 309.362 627.283 307.414C627.474 305.466 626.702 301.485 626.702 301.485Z" fill="#FFC0BB"/>
<path d="M588.23 329.473C589.353 319.58 592.069 312.944 595.115 308.498C597.392 305.175 600.84 302.865 604.716 301.89C604.733 301.956 605.696 305.471 610.671 306.032C615.693 306.597 626.51 301.473 626.703 301.485L626.703 301.485C632.291 301.824 637.124 302.85 639.641 305.717C644.662 311.436 661.272 351.373 660.885 357.014C660.499 362.656 656.056 362.656 656.056 362.656L610.567 362.676V372.897L577.57 375.099C578.49 374.504 585.049 357.502 588.23 329.473Z" fill="#4188E4"/>
<path d="M584.575 325.59C584.285 325.601 572.564 318.666 572.564 318.666L570.374 319.121L571.151 319.68L569.841 319.359L567.71 319.68C567.71 319.68 574.754 327.797 574.873 328.028C574.991 328.259 578.069 329.415 578.306 329.53C578.543 329.646 584.575 325.59 584.575 325.59Z" fill="#DAEEF7"/>
<path d="M603.331 320.053L602.265 319.403L601.777 319.728V319.121L601.111 318.666L584.062 325.254C584.062 325.254 589.524 328.634 589.701 328.505C589.879 328.374 599.601 326.641 599.779 326.381C599.957 326.121 603.331 320.053 603.331 320.053Z" fill="#DAEEF7"/>
<path d="M603.061 319.745L583.739 325.855L568.156 319.231C567.21 318.829 566.173 319.576 566.288 320.577L569.256 346.505C569.305 346.936 569.57 347.316 569.963 347.518L584.925 355.217L598.477 350.32L598.825 349.819L600.582 349.558L606.264 347.505C606.772 347.322 607.092 346.829 607.045 346.303L604.811 320.878C604.737 320.039 603.883 319.485 603.061 319.745Z" fill="#FEB546"/>
<path d="M603.061 319.745C603.883 319.485 604.737 320.039 604.811 320.879L607.042 346.269C607.09 346.816 606.759 347.327 606.232 347.517L600.582 349.559L598.825 349.819L598.476 350.32L589.361 353.614C587.265 353.22 585.184 352.839 585.184 352.839L583.739 325.855L603.061 319.745Z" fill="#F4A640"/>
<path d="M580.855 328.954L568.805 323.809L569.19 329.155L580.999 334.5L580.855 328.954Z" fill="#F4A640"/>
<path d="M574.346 372.962C574.346 372.962 533.547 371.705 524.277 380.252C515.006 388.8 524.019 451.914 525.564 457.813C525.564 457.813 531.229 462.958 537.924 460.947C544.62 458.936 542.045 430.781 542.045 430.781C542.045 430.781 541.272 403.882 542.302 400.112C543.332 396.341 557.495 393.576 557.495 393.576C557.495 393.576 579.384 378.744 578.096 378.744C576.809 378.744 574.346 372.962 574.346 372.962Z" fill="#2B1C35"/>
<path d="M610.567 371.754C610.567 371.754 555.95 365.421 548.482 389.554C541.015 413.687 535.349 461.45 535.349 461.45C535.349 461.45 542.56 465.723 552.345 461.45C552.345 461.45 566.185 410.168 571.368 405.14C576.551 400.112 610.567 403.178 610.567 403.178V371.754Z" fill="#3A2645"/>
<path d="M596.529 356.409C596.737 355.257 597.032 354.124 597.366 353.004C597.706 351.884 598.081 350.78 598.533 349.69L598.583 349.568L598.721 349.561L635.163 347.779C635.027 346.699 634.69 345.639 634.323 344.601C633.936 343.523 633.494 342.464 633.032 341.413C632.102 339.313 631.081 337.251 630.026 335.206C627.907 331.121 625.653 327.101 623.305 323.135L623.343 323.114C625.719 327.065 628.002 331.07 630.152 335.143C631.222 337.183 632.258 339.24 633.206 341.339C633.676 342.39 634.127 343.45 634.524 344.531C634.915 345.614 635.277 346.716 635.414 347.876L635.428 347.993L635.304 347.999L598.885 349.973C598.466 350.999 598.104 352.058 597.781 353.122C597.451 354.23 597.16 355.35 596.956 356.484C596.756 357.618 596.588 358.762 596.585 359.908C596.571 361.003 596.658 362.101 596.955 363.149L607.741 362.843L613.214 362.694L618.69 362.603L618.692 362.655L613.22 362.867L607.749 363.094L596.808 363.538L596.658 363.544L596.614 363.404C596.254 362.264 596.145 361.075 596.15 359.901C596.154 358.724 596.326 357.561 596.529 356.409Z" fill="white" fill-opacity="0.03"/>
<path d="M584.995 325.485L586.392 353.917L584.26 353.614L582.758 325.485C582.758 325.485 583.885 324.719 584.995 325.485Z" fill="#ED9935"/>
<path d="M583.439 352.38C586.143 353.543 591.63 352.699 591.63 352.699L595.784 351.288C596.365 351.674 596.956 352.066 597.541 352.447C597.482 352.633 597.423 352.818 597.366 353.004C597.032 354.124 596.737 355.257 596.529 356.409C596.326 357.561 596.154 358.724 596.149 359.902C596.148 360.094 596.156 360.286 596.162 360.48L595.577 360.267C594.871 360.406 593.591 360.287 591.818 360.021C589.793 359.769 586.594 359.333 585.195 358.94C584.187 358.657 583.749 358.028 583.564 357.446C582.767 356.971 582.692 356.087 582.788 355.383C582.766 355.338 582.746 355.293 582.731 355.248C582.342 354.062 582.559 353.754 582.758 353.633C582.616 353.49 582.517 353.335 582.474 353.166C582.023 351.406 583.439 352.38 583.439 352.38Z" fill="#FFC0BB"/>
<path d="M582.758 355.29C583.083 355.66 583.504 355.942 583.942 356.178C584.381 356.416 584.856 356.586 585.34 356.717C585.827 356.835 586.324 356.916 586.824 356.937C587.073 356.955 587.324 356.941 587.573 356.944C587.822 356.925 588.07 356.904 588.316 356.874C587.819 356.851 587.326 356.835 586.838 356.774C586.35 356.716 585.869 356.631 585.395 356.512C584.923 356.389 584.462 356.23 584.017 356.033C583.573 355.832 583.143 355.595 582.758 355.29Z" fill="#F99893"/>
<path d="M583.558 357.45C583.912 357.795 584.354 358.043 584.81 358.245C585.268 358.448 585.755 358.581 586.247 358.675C586.742 358.755 587.244 358.798 587.745 358.779C587.995 358.778 588.243 358.745 588.492 358.729C588.738 358.691 588.984 358.651 589.227 358.603C588.73 358.617 588.237 358.639 587.746 358.617C587.255 358.596 586.767 358.549 586.286 358.466C585.806 358.38 585.333 358.257 584.873 358.095C584.415 357.928 583.967 357.725 583.558 357.45Z" fill="#F99893"/>
<path d="M582.758 353.633C583.083 354.003 583.504 354.285 583.942 354.521C584.381 354.759 584.856 354.929 585.34 355.06C585.827 355.178 586.324 355.259 586.824 355.28C587.073 355.298 587.324 355.284 587.573 355.287C587.822 355.268 588.07 355.247 588.316 355.218C587.819 355.194 587.326 355.178 586.838 355.118C586.35 355.059 585.869 354.975 585.395 354.856C584.923 354.732 584.462 354.574 584.017 354.376C583.573 354.175 583.143 353.938 582.758 353.633Z" fill="#F99893"/>
<path d="M677.979 478.294H682.102L671.819 438.846L667.946 439.809L677.979 478.294Z" fill="#3D3A55"/>
<path d="M602.373 478.294H606.496L596.212 438.846L592.34 439.809L602.373 478.294Z" fill="#3D3A55"/>
<path d="M627.753 478.294H623.63L633.913 438.846L637.786 439.809L627.753 478.294Z" fill="#3D3A55"/>
<path d="M618.978 292.308L619.78 303.816C619.78 303.816 612.912 306.572 608.265 304.341L608.074 293.697L618.978 292.308Z" fill="#FFC0BB"/>
<path d="M608.191 300.212L608.074 293.697L618.978 292.308L619.212 295.661C617.075 297.351 613.35 299.613 608.191 300.212Z" fill="#F99893"/>
<path d="M630.198 280.096C630.198 280.096 635.495 267.191 627.926 261.108C620.357 255.025 611.531 254.436 605.161 256.654C598.79 258.871 593.789 268.855 595.642 275.177L616.204 272.063L630.198 280.096Z" fill="#FEB546"/>
<path d="M596.627 288.281C596.292 287.444 596.038 286.572 595.869 285.675C595.366 283.259 595.332 280.775 595.482 278.638C595.514 278.179 595.518 277.72 595.512 277.26C595.491 275.403 595.831 273.494 596.625 271.603C599.178 265.519 605.82 261.709 612.77 262.356C622.134 263.228 628.584 271.339 627.104 279.818C628.175 279.467 629.299 279.529 630.198 280.095C631.924 281.182 632.17 283.696 630.749 285.712C629.328 287.727 626.776 288.48 625.051 287.394C624.811 287.243 624.603 287.063 624.421 286.862C622.379 293.948 615.112 298.485 607.582 297.13C603.9 296.468 600.803 294.511 598.682 291.829C598.537 291.669 598.387 291.485 598.233 291.275C597.557 290.351 597.034 289.339 596.627 288.281Z" fill="#FFC0BB"/>
<path d="M612.208 279.94C612.061 280.703 612.6 281.439 613.412 281.585C614.224 281.731 615.001 281.232 615.148 280.469C615.295 279.707 614.756 278.971 613.944 278.825C613.132 278.678 612.355 279.178 612.208 279.94Z" fill="#333333"/>
<path d="M600.047 278.349C599.899 279.111 600.439 279.847 601.251 279.993C602.063 280.14 602.839 279.64 602.986 278.878C603.134 278.115 602.594 277.379 601.783 277.233C600.971 277.087 600.194 277.586 600.047 278.349Z" fill="#333333"/>
<path d="M611.28 277.456C612 277.209 612.734 277.051 613.469 276.978C614.205 276.911 614.942 276.947 615.65 277.105C616.005 277.18 616.35 277.294 616.685 277.432C616.855 277.497 617.016 277.58 617.18 277.658C617.262 277.697 617.339 277.746 617.419 277.789C617.499 277.832 617.58 277.874 617.656 277.925C618.278 278.308 618.848 278.778 619.398 279.291C619.025 278.653 618.515 278.078 617.899 277.608C617.592 277.373 617.256 277.165 616.896 277.001C616.537 276.833 616.159 276.7 615.768 276.616C614.988 276.443 614.171 276.439 613.403 276.592C613.017 276.664 612.644 276.778 612.286 276.919C611.93 277.064 611.585 277.234 611.28 277.456Z" fill="#FEB546"/>
<path d="M605.31 276.675C605.076 276.383 604.789 276.13 604.486 275.898C604.178 275.67 603.849 275.464 603.496 275.295C602.795 274.95 602.006 274.745 601.207 274.711C600.807 274.691 600.405 274.722 600.015 274.792C599.623 274.858 599.244 274.972 598.884 275.12C598.163 275.415 597.516 275.839 596.985 276.358C597.654 276.005 598.33 275.698 599.033 275.488C599.12 275.459 599.209 275.439 599.299 275.418C599.388 275.397 599.474 275.37 599.564 275.354C599.744 275.321 599.921 275.281 600.102 275.262C600.463 275.216 600.826 275.194 601.189 275.213C601.915 275.243 602.635 275.398 603.327 275.651C604.017 275.91 604.683 276.251 605.31 276.675Z" fill="#FEB546"/>
<path d="M627.104 279.819C627.104 279.819 616.933 274.341 612.077 267.401C612.077 267.401 611.738 270.812 612.78 272.161C612.366 272.349 605.334 268.607 604.348 263.054C603.361 257.502 613.229 260.882 613.229 260.882C613.229 260.882 619.121 260.744 619.358 260.896C619.595 261.049 623.398 263.911 623.563 264.114C623.729 264.318 628.145 272.231 628.145 272.231L629.157 275.092L630.198 280.096L627.104 279.819Z" fill="#FEB546"/>
<path opacity="0.3" d="M609.573 287.845C609.573 287.845 607.915 287.033 606.141 287.826C606.141 287.826 604.516 286.554 602.986 287.365C602.986 287.365 603.294 289.923 606.222 290.137C609.149 290.35 609.573 287.845 609.573 287.845Z" fill="#F99893"/>
<path d="M611.216 287.158C610.854 287.365 610.48 287.551 610.092 287.704C609.708 287.866 609.314 288.004 608.911 288.111C608.108 288.325 607.275 288.441 606.446 288.398C605.617 288.359 604.802 288.155 604.041 287.825C603.284 287.484 602.589 287.015 601.946 286.482C602.223 286.79 602.527 287.079 602.857 287.342C603.187 287.606 603.553 287.827 603.931 288.032C604.314 288.226 604.72 288.384 605.141 288.498C605.563 288.607 605.997 288.674 606.433 288.7C607.306 288.737 608.179 288.606 608.989 288.331C609.799 288.058 610.566 287.674 611.216 287.158Z" fill="#F99893"/>
<path d="M606.817 278.582C606.314 279.159 605.867 279.775 605.452 280.41C605.036 281.045 604.658 281.703 604.338 282.396C604.187 282.747 604.044 283.104 603.961 283.498C603.944 283.598 603.931 283.7 603.93 283.81C603.929 283.864 603.936 283.925 603.942 283.982C603.958 284.046 603.966 284.107 604.004 284.174C604.023 284.208 604.043 284.241 604.065 284.272L604.12 284.331C604.157 284.369 604.192 284.409 604.23 284.444C604.309 284.511 604.386 284.581 604.468 284.64C604.792 284.889 605.144 285.081 605.503 285.255C605.864 285.423 606.231 285.575 606.614 285.689C605.946 285.278 605.273 284.868 604.72 284.374C604.649 284.313 604.59 284.246 604.527 284.182L604.442 284.083L604.401 284.034C604.399 284.025 604.396 284.017 604.392 284.009C604.354 283.931 604.374 283.744 604.415 283.586C604.497 283.253 604.635 282.911 604.788 282.579C605.087 281.907 605.44 281.249 605.784 280.585C606.133 279.923 606.486 279.261 606.817 278.582Z" fill="#F99893"/>
</g>
<defs>
<clipPath id="clip0_65_408">
<rect width="791" height="519" fill="white"/>
</clipPath>
</defs>
</svg>
